<svg xmlns="http://www.w3.org/2000/svg" width="820" height="460">
<rect x="0" y="0" width="100%" height="100%" fill="white"/>
<text x="410.0" y="20" text-anchor="middle" font-size="14" font-family="Arial">Figure1(c) User cost vs media size</text>
<line x1="70" y1="40" x2="70" y2="400" stroke="black"/>
<line x1="70" y1="400" x2="795" y2="400" stroke="black"/>
<line x1="70" y1="400.0" x2="795" y2="400.0" stroke="#e6e6e6"/>
<text x="62" y="403.0" text-anchor="end" font-size="10" font-family="Arial">20</text>
<line x1="70" y1="328.0" x2="795" y2="328.0" stroke="#e6e6e6"/>
<text x="62" y="331.0" text-anchor="end" font-size="10" font-family="Arial">391</text>
<line x1="70" y1="256.0" x2="795" y2="256.0" stroke="#e6e6e6"/>
<text x="62" y="259.0" text-anchor="end" font-size="10" font-family="Arial">763</text>
<line x1="70" y1="184.0" x2="795" y2="184.0" stroke="#e6e6e6"/>
<text x="62" y="187.0" text-anchor="end" font-size="10" font-family="Arial">1135</text>
<line x1="70" y1="112.0" x2="795" y2="112.0" stroke="#e6e6e6"/>
<text x="62" y="115.0" text-anchor="end" font-size="10" font-family="Arial">1506</text>
<line x1="70" y1="40.0" x2="795" y2="40.0" stroke="#e6e6e6"/>
<text x="62" y="43.0" text-anchor="end" font-size="10" font-family="Arial">1878</text>
<line x1="70.0" y1="400" x2="70.0" y2="404" stroke="black"/>
<text x="70.0" y="418" text-anchor="middle" font-size="10" font-family="Arial">512</text>
<line x1="118.33333333333334" y1="400" x2="118.33333333333334" y2="404" stroke="black"/>
<text x="118.33333333333334" y="418" text-anchor="middle" font-size="10" font-family="Arial">1024</text>
<line x1="166.66666666666669" y1="400" x2="166.66666666666669" y2="404" stroke="black"/>
<text x="166.66666666666669" y="418" text-anchor="middle" font-size="10" font-family="Arial">1536</text>
<line x1="215.0" y1="400" x2="215.0" y2="404" stroke="black"/>
<text x="215.0" y="418" text-anchor="middle" font-size="10" font-family="Arial">2048</text>
<line x1="263.33333333333337" y1="400" x2="263.33333333333337" y2="404" stroke="black"/>
<text x="263.33333333333337" y="418" text-anchor="middle" font-size="10" font-family="Arial">2560</text>
<line x1="311.66666666666663" y1="400" x2="311.66666666666663" y2="404" stroke="black"/>
<text x="311.66666666666663" y="418" text-anchor="middle" font-size="10" font-family="Arial">3072</text>
<line x1="360.0" y1="400" x2="360.0" y2="404" stroke="black"/>
<text x="360.0" y="418" text-anchor="middle" font-size="10" font-family="Arial">3584</text>
<line x1="408.3333333333333" y1="400" x2="408.3333333333333" y2="404" stroke="black"/>
<text x="408.3333333333333" y="418" text-anchor="middle" font-size="10" font-family="Arial">4096</text>
<line x1="456.6666666666667" y1="400" x2="456.6666666666667" y2="404" stroke="black"/>
<text x="456.6666666666667" y="418" text-anchor="middle" font-size="10" font-family="Arial">4608</text>
<line x1="505.0" y1="400" x2="505.0" y2="404" stroke="black"/>
<text x="505.0" y="418" text-anchor="middle" font-size="10" font-family="Arial">5120</text>
<line x1="553.3333333333333" y1="400" x2="553.3333333333333" y2="404" stroke="black"/>
<text x="553.3333333333333" y="418" text-anchor="middle" font-size="10" font-family="Arial">5632</text>
<line x1="601.6666666666666" y1="400" x2="601.6666666666666" y2="404" stroke="black"/>
<text x="601.6666666666666" y="418" text-anchor="middle" font-size="10" font-family="Arial">6144</text>
<line x1="650.0" y1="400" x2="650.0" y2="404" stroke="black"/>
<text x="650.0" y="418" text-anchor="middle" font-size="10" font-family="Arial">6656</text>
<line x1="698.3333333333334" y1="400" x2="698.3333333333334" y2="404" stroke="black"/>
<text x="698.3333333333334" y="418" text-anchor="middle" font-size="10" font-family="Arial">7168</text>
<line x1="746.6666666666666" y1="400" x2="746.6666666666666" y2="404" stroke="black"/>
<text x="746.6666666666666" y="418" text-anchor="middle" font-size="10" font-family="Arial">7680</text>
<line x1="795.0" y1="400" x2="795.0" y2="404" stroke="black"/>
<text x="795.0" y="418" text-anchor="middle" font-size="10" font-family="Arial">8192</text>
<text x="432.5" y="450" text-anchor="middle" font-size="12" font-family="Arial">Media size (edge px)</text>
<text x="18" y="220.0" transform="rotate(-90 18 220.0)" text-anchor="middle" font-size="12" font-family="Arial">time (s)</text>
<path d="M 70.00 400.00 L 118.33 396.63 L 166.67 391.06 L 215.00 382.52 L 263.33 371.53 L 311.67 356.07 L 360.00 339.31 L 408.33 320.54 L 456.67 297.48 L 505.00 269.89 L 553.33 242.26 L 601.67 205.45 L 650.00 171.16 L 698.33 130.46 L 746.67 87.35 L 795.00 40.00" fill="none" stroke="#1f77b4" stroke-width="2"/>
<circle cx="70.00" cy="400.00" r="3" fill="#1f77b4" stroke="white" stroke-width="1"/>
<circle cx="118.33" cy="396.63" r="3" fill="#1f77b4" stroke="white" stroke-width="1"/>
<circle cx="166.67" cy="391.06" r="3" fill="#1f77b4" stroke="white" stroke-width="1"/>
<circle cx="215.00" cy="382.52" r="3" fill="#1f77b4" stroke="white" stroke-width="1"/>
<circle cx="263.33" cy="371.53" r="3" fill="#1f77b4" stroke="white" stroke-width="1"/>
<circle cx="311.67" cy="356.07" r="3" fill="#1f77b4" stroke="white" stroke-width="1"/>
<circle cx="360.00" cy="339.31" r="3" fill="#1f77b4" stroke="white" stroke-width="1"/>
<circle cx="408.33" cy="320.54" r="3" fill="#1f77b4" stroke="white" stroke-width="1"/>
<circle cx="456.67" cy="297.48" r="3" fill="#1f77b4" stroke="white" stroke-width="1"/>
<circle cx="505.00" cy="269.89" r="3" fill="#1f77b4" stroke="white" stroke-width="1"/>
<circle cx="553.33" cy="242.26" r="3" fill="#1f77b4" stroke="white" stroke-width="1"/>
<circle cx="601.67" cy="205.45" r="3" fill="#1f77b4" stroke="white" stroke-width="1"/>
<circle cx="650.00" cy="171.16" r="3" fill="#1f77b4" stroke="white" stroke-width="1"/>
<circle cx="698.33" cy="130.46" r="3" fill="#1f77b4" stroke="white" stroke-width="1"/>
<circle cx="746.67" cy="87.35" r="3" fill="#1f77b4" stroke="white" stroke-width="1"/>
<circle cx="795.00" cy="40.00" r="3" fill="#1f77b4" stroke="white" stroke-width="1"/>
<rect x="625" y="41" width="12" height="12" fill="#1f77b4"/>
<text x="643" y="51" font-size="10" font-family="Arial">User_FC</text>
</svg>